<svg width="141.732" height="141.732" xmlns="http://www.w3.org/2000/svg">

 <g>
  <title>background</title>
  <rect fill="none" id="canvas_background" height="402" width="582" y="-1" x="-1"/>
 </g>
 <g>
  <title>Layer 1</title>
  <path id="svg_1" d="m57.217,63.271l-36.364,36.366c-4.612,4.608 -7.15,10.738 -7.15,17.259c0,6.524 2.541,12.653 7.151,17.261c4.609,4.608 10.74,7.148 17.259,7.15l0.002,0c6.52,0 12.648,-2.54 17.257,-7.15l36.366,-36.367c7.484,-7.484 9.261,-18.854 4.573,-28.188l-7.984,7.985c0.992,4.667 -0.443,9.568 -3.831,12.957l-37.28,37.277l-0.026,-0.023c-2.652,2.316 -6.001,3.579 -9.527,3.579c-3.768,0 -7.295,-1.453 -9.937,-4.092c-2.681,-2.68 -4.13,-6.259 -4.093,-10.078c0.036,-3.476 1.301,-6.773 3.584,-9.39l-0.021,-0.02l0.511,-0.515c0.067,-0.071 0.137,-0.144 0.206,-0.211c0.021,-0.021 0.043,-0.044 0.064,-0.062l0.123,-0.125l36.364,-36.366c2.676,-2.673 6.23,-4.144 10.008,-4.144c0.977,0 1.947,0.101 2.899,0.298l7.993,-7.995c-3.36,-1.676 -7.097,-2.554 -10.889,-2.554c-6.518,0.001 -12.648,2.54 -17.258,7.148m70.592,-38.934c0,-6.52 -2.541,-12.65 -7.15,-17.258c-4.61,-4.613 -10.74,-7.151 -17.261,-7.151c-6.519,0 -12.648,2.539 -17.257,7.151l-36.367,36.363c-7.479,7.478 -9.26,18.84 -4.585,28.17l7.646,-7.646c-0.877,-4.368 0.358,-8.964 3.315,-12.356l-0.021,-0.022l0.502,-0.507c0.064,-0.067 0.134,-0.138 0.201,-0.206c0.021,-0.02 0.04,-0.04 0.062,-0.06l0.126,-0.127l36.363,-36.364c2.675,-2.675 6.231,-4.147 10.014,-4.147c3.784,0 7.339,1.472 10.014,4.147c5.522,5.521 5.522,14.51 0,20.027l-37.273,37.278l-0.026,-0.026c-2.656,2.317 -5.999,3.581 -9.526,3.581c-0.951,0 -1.891,-0.094 -2.814,-0.278l-7.645,7.645c3.369,1.681 7.107,2.563 10.907,2.563c6.523,0 12.652,-2.539 17.261,-7.148l36.365,-36.365c4.61,-4.613 7.149,-10.742 7.149,-17.264"/>
  <path d="m32.824131,42.827438c-1.918079,0 -3.836157,0 -5.967354,0c-2.344316,0 -3.623035,-0.21312 -4.475513,-0.21312c-0.426239,0 -0.584692,-0.043262 -0.426239,0.21312c0.354313,0.573292 0.834867,2.352242 1.704958,4.262394c1.46236,3.210388 3.473248,8.714825 4.688633,12.147823c0.899668,2.541222 2.224228,5.905334 4.475515,6.819832c1.787994,0.726303 4.024014,0.54895 5.75423,-0.639359c3.229786,-2.218212 4.049274,-4.688633 4.475513,-6.180473l0,-0.639359l0,-0.639359" id="svg_2" fill-opacity="null" stroke-opacity="null" stroke-width="null" stroke="null" fill="none"/>
 </g>
</svg>